<?xml version="1.0" encoding="UTF-8" standalone="no" ?>
<!DOCTYPE svg PUBLIC "-//W3C//DTD SVG 1.1//EN" "http://www.w3.org/Graphics/SVG/1.1/DTD/svg11.dtd">
<svg xmlns="http://www.w3.org/2000/svg" xmlns:xlink="http://www.w3.org/1999/xlink" version="1.1" width="1080" height="1080" viewBox="0 0 1080 1080" xml:space="preserve">
<desc>Created with Fabric.js 5.2.4</desc>
<defs>
</defs>
<g transform="matrix(1 0 0 1 540 540)" id="dfa7a0a8-c3f5-4c3b-ae40-aad5d03147f0"  >
<rect style="stroke: none; stroke-width: 1; stroke-dasharray: none; stroke-linecap: butt; stroke-dashoffset: 0; stroke-linejoin: miter; stroke-miterlimit: 4; fill: rgb(255,255,255); fill-rule: nonzero; opacity: 1; visibility: hidden;" vector-effect="non-scaling-stroke"  x="-540" y="-540" rx="0" ry="0" width="1080" height="1080" />
</g>
<g transform="matrix(1 0 0 1 540 540)" id="d9596010-de3c-430e-9799-ea6d3720e75e"  >
</g>
<g transform="matrix(43.2 0 0 43.2 560.71 524.32)"  >
<path style="stroke: none; stroke-width: 0; stroke-dasharray: none; stroke-linecap: butt; stroke-dashoffset: 0; stroke-linejoin: miter; stroke-miterlimit: 4; fill: rgb(0,0,0); fill-rule: nonzero; opacity: 1;"  transform=" translate(-14, -11.75)" d="M 18 2.5 C 18 2.2238576250846034 18.2238576250846 2 18.5 2 C 18.7761423749154 2 19 2.2238576250846034 19 2.5 L 19 5 L 21.5 5 C 21.7761423749154 5 22 5.223857625084603 22 5.5 C 22 5.776142374915397 21.7761423749154 6 21.5 6 L 19 6 L 19 8.5 C 19 8.776142374915397 18.7761423749154 9 18.5 9 C 18.2238576250846 9 18 8.776142374915397 18 8.5 L 18 6 L 15.5 6 C 15.223857625084603 6 15 5.776142374915397 15 5.5 C 15 5.223857625084603 15.223857625084603 5 15.5 5 L 18 5 L 18 2.5 z M 7 7 C 7 6.447715250169207 7.447715250169207 6 8 6 L 11.5 6 C 11.776142374915397 6 12 5.776142374915397 12 5.5 C 12 5.223857625084603 11.776142374915397 5 11.5 5 L 8 5 C 6.8954305003384135 5 6 5.8954305003384135 6 7 L 6 21 C 6.000000000000001 21.18938602922694 6.107001188113941 21.362517588431917 6.276393202250022 21.447213595499957 C 6.445785216386103 21.531909602567996 6.648491176618447 21.513631617536163 6.8 21.4 L 12.5 17 L 18.2 21.4 C 18.351508823381554 21.513631617536163 18.554214783613897 21.531909602567996 18.72360679774998 21.447213595499957 C 18.89299881188606 21.362517588431917 19 21.18938602922694 19 21 L 19 12.5 C 19 12.223857625084603 18.7761423749154 12 18.5 12 C 18.2238576250846 12 18 12.223857625084603 18 12.5 L 18 19.98 L 12.8 15.98 C 12.622222222222224 15.846666666666668 12.377777777777778 15.846666666666668 12.200000000000001 15.98 L 7.000000000000001 19.98 L 7.000000000000001 7 z" stroke-linecap="round" />
</g>
</svg>