<?xml version="1.0" encoding="UTF-8" standalone="no" ?>
<!DOCTYPE svg PUBLIC "-//W3C//DTD SVG 1.1//EN" "http://www.w3.org/Graphics/SVG/1.1/DTD/svg11.dtd">
<svg xmlns="http://www.w3.org/2000/svg" xmlns:xlink="http://www.w3.org/1999/xlink" version="1.1" width="1080" height="1080" viewBox="0 0 1080 1080" xml:space="preserve">
<desc>Created with Fabric.js 5.2.4</desc>
<defs>
</defs>
<g transform="matrix(1 0 0 1 540 540)" id="a7b8250b-31ec-4ddd-8256-145279a0b4be"  >
<rect style="stroke: none; stroke-width: 1; stroke-dasharray: none; stroke-linecap: butt; stroke-dashoffset: 0; stroke-linejoin: miter; stroke-miterlimit: 4; fill: rgb(255,255,255); fill-rule: nonzero; opacity: 1; visibility: hidden;" vector-effect="non-scaling-stroke"  x="-540" y="-540" rx="0" ry="0" width="1080" height="1080" />
</g>
<g transform="matrix(1 0 0 1 540 540)" id="a47ac1a9-0a8a-433b-b9a0-a35b337c89f9"  >
</g>
<g transform="matrix(67.5 0 0 67.5 517.71 540)"  >
<g style=""   >
		<g transform="matrix(1.25 0 0 1.25 0.38 0)"  >
<path style="stroke: none; stroke-width: 1; stroke-dasharray: none; stroke-linecap: butt; stroke-dashoffset: 0; stroke-linejoin: miter; stroke-miterlimit: 4; fill: rgb(67,122,255); fill-rule: nonzero; opacity: 1;" vector-effect="non-scaling-stroke"  transform=" translate(-8.3, -8)" d="M 15.16 8 C 15.16 8.65 14.7 9.14 14.3 9.57 C 14.07 9.82 13.83 10.07 13.74 10.290000000000001 C 13.64 10.510000000000002 13.65 10.840000000000002 13.64 11.170000000000002 C 13.64 11.770000000000001 13.63 12.470000000000002 13.16 12.950000000000001 C 12.68 13.430000000000001 12 13.450000000000001 11.41 13.450000000000001 C 11.09 13.450000000000001 10.76 13.46 10.55 13.55 C 10.350000000000001 13.620000000000001 10.09 13.88 9.850000000000001 14.120000000000001 C 9.430000000000001 14.530000000000001 8.950000000000001 15.000000000000002 8.310000000000002 15.000000000000002 C 7.6700000000000035 15.000000000000002 7.190000000000002 14.530000000000001 6.770000000000002 14.120000000000001 C 6.568961813703755 13.890705867521035 6.332664933431781 13.694917023867115 6.069999999999999 13.54 C 5.850000000000002 13.450000000000001 5.530000000000002 13.46 5.200000000000002 13.450000000000001 C 4.610000000000002 13.450000000000001 3.930000000000002 13.430000000000001 3.4600000000000017 12.950000000000001 C 2.9900000000000015 12.47 2.9800000000000018 11.780000000000001 2.9700000000000015 11.170000000000002 C 2.9700000000000015 10.840000000000002 2.9600000000000017 10.500000000000002 2.8700000000000014 10.290000000000001 C 2.8000000000000016 10.090000000000002 2.5500000000000016 9.82 2.320000000000001 9.580000000000002 C 1.9200000000000013 9.140000000000002 1.450000000000001 8.650000000000002 1.450000000000001 8.000000000000002 C 1.450000000000001 7.350000000000001 1.910000000000001 6.860000000000002 2.320000000000001 6.420000000000002 C 2.550000000000001 6.1800000000000015 2.790000000000001 5.920000000000002 2.8800000000000012 5.710000000000002 C 2.970000000000001 5.490000000000002 2.9600000000000013 5.160000000000002 2.970000000000001 4.830000000000002 C 2.970000000000001 4.230000000000002 2.990000000000001 3.530000000000002 3.460000000000001 3.0500000000000016 C 3.9300000000000006 2.570000000000001 4.610000000000001 2.5500000000000016 5.200000000000001 2.5500000000000016 C 5.530000000000001 2.5500000000000016 5.860000000000001 2.540000000000002 6.060000000000001 2.4500000000000015 C 6.260000000000002 2.3700000000000014 6.530000000000001 2.1200000000000014 6.760000000000002 1.8800000000000017 C 7.190000000000001 1.4700000000000017 7.670000000000002 1.0000000000000018 8.310000000000002 1.0000000000000018 C 8.940000000000003 1.0000000000000018 9.430000000000003 1.4700000000000017 9.850000000000001 1.8800000000000017 C 10.090000000000002 2.120000000000002 10.340000000000002 2.3600000000000017 10.55 2.4600000000000017 C 10.770000000000001 2.5500000000000016 11.09 2.540000000000002 11.41 2.5500000000000016 C 12.01 2.5500000000000016 12.68 2.5700000000000016 13.16 3.0500000000000016 C 13.63 3.5300000000000016 13.64 4.2200000000000015 13.65 4.830000000000002 C 13.65 5.160000000000002 13.65 5.500000000000002 13.74 5.710000000000002 C 13.82 5.910000000000002 14.07 6.1800000000000015 14.3 6.420000000000002 C 14.700000000000001 6.860000000000002 15.16 7.350000000000001 15.16 8.000000000000002 z" stroke-linecap="round" />
</g>
		<g transform="matrix(1.25 0 0 1.25 0.39 0.63)"  >
<path style="stroke: none; stroke-width: 1; stroke-dasharray: none; stroke-linecap: butt; stroke-dashoffset: 0; stroke-linejoin: miter; stroke-miterlimit: 4; fill: rgb(255,255,255); fill-rule: nonzero; opacity: 1;" vector-effect="non-scaling-stroke"  transform=" translate(-8.31, -8.5)" d="M 7.33 10.5 C 7.53 10.5 7.71 10.58 7.85 10.72 C 7.9799999999999995 10.860000000000001 8.06 11.05 8.06 11.25 C 8.06 11.32 8.09 11.38 8.13 11.43 C 8.17536666577225 11.478338612896785 8.238707045170123 11.505759322943431 8.305 11.505759322943431 C 8.371292954829878 11.505759322943431 8.434633334227751 11.478338612896785 8.48 11.43 C 8.526502824801677 11.381799057230266 8.551720212446348 11.316954346143966 8.55 11.25 C 8.55 11.05 8.63 10.86 8.770000000000001 10.72 C 8.906809101551527 10.57988873400131 9.09417478605728 10.500618636710414 9.290000000000001 10.5 L 11.25 10.5 C 11.38 10.5 11.5 10.45 11.59 10.35 C 11.684207131858448 10.257684769948199 11.738121476071765 10.131884633450463 11.74 10 L 11.74 6 C 11.738121476071765 5.868115366549537 11.684207131858448 5.742315230051801 11.59 5.65 C 11.501403988389882 5.55637700652807 11.378876422990867 5.5023207276755635 11.25 5.5 L 9.78 5.5 C 9.45 5.5 9.139999999999999 5.63 8.91 5.87 C 8.68 6.1000000000000005 8.55 6.42 8.55 6.75 L 8.55 9.25 C 8.55 9.32 8.530000000000001 9.38 8.48 9.43 C 8.434633334227751 9.478338612896785 8.371292954829878 9.505759322943431 8.305 9.505759322943431 C 8.238707045170123 9.505759322943431 8.17536666577225 9.478338612896785 8.13 9.43 C 8.083497175198325 9.381799057230266 8.058279787553653 9.316954346143966 8.06 9.25 L 8.06 6.75 C 8.06 6.42 7.930000000000001 6.1 7.7 5.87 C 7.474592261208568 5.6362686710624805 7.164700355853318 5.502943083874757 6.84 5.5 L 5.37 5.5 C 5.237642212620803 5.499605824718506 5.110995795402502 5.553882860669206 5.0200000000000005 5.65 C 4.92945742608581 5.743933281653763 4.879216261409561 5.869536193344386 4.880000000000001 6 L 4.880000000000001 10 C 4.880000000000001 10.13 4.930000000000001 10.26 5.0200000000000005 10.35 C 5.12 10.45 5.24 10.5 5.37 10.5 L 7.33 10.5 z" stroke-linecap="round" />
</g>
</g>
</g>
</svg>