<?xml version="1.0" encoding="UTF-8" standalone="no" ?>
<!DOCTYPE svg PUBLIC "-//W3C//DTD SVG 1.1//EN" "http://www.w3.org/Graphics/SVG/1.1/DTD/svg11.dtd">
<svg xmlns="http://www.w3.org/2000/svg" xmlns:xlink="http://www.w3.org/1999/xlink" version="1.1" width="1080" height="1080" viewBox="0 0 1080 1080" xml:space="preserve">
<desc>Created with Fabric.js 5.2.4</desc>
<defs>
</defs>
<g transform="matrix(1 0 0 1 540 540)" id="002176a7-f7b3-480c-8f05-a576a2c6e8e1"  >
<rect style="stroke: none; stroke-width: 1; stroke-dasharray: none; stroke-linecap: butt; stroke-dashoffset: 0; stroke-linejoin: miter; stroke-miterlimit: 4; fill: rgb(255,255,255); fill-rule: nonzero; opacity: 1; visibility: hidden;" vector-effect="non-scaling-stroke"  x="-540" y="-540" rx="0" ry="0" width="1080" height="1080" />
</g>
<g transform="matrix(1 0 0 1 540 540)" id="1e1682cc-15d2-407e-995c-23568e34ca6d"  >
</g>
<g transform="matrix(16.88 0 0 16.88 540 540)"  >
<path style="stroke: none; stroke-width: 1; stroke-dasharray: none; stroke-linecap: butt; stroke-dashoffset: 0; stroke-linejoin: miter; stroke-miterlimit: 4; fill: rgb(255,192,23); fill-rule: nonzero; opacity: 1;"  transform=" translate(-31.99, -32)" d="M 39.64 40.83 L 33.87 56.7 C 33.583877629797264 57.48615674556081 32.836605306773265 58.00941201891306 31.999999999999996 58.00941201891306 C 31.163394693226724 58.00941201891306 30.41612237020273 57.48615674556082 30.129999999999995 56.7 L 24.359999999999996 40.830000000000005 C 24.15557215076584 40.273224393602334 23.716775606397665 39.83442784923416 23.159999999999997 39.63 L 7.3 33.88 C 6.513843254439187 33.59387762979727 5.990587981086939 32.84660530677327 5.990587981086939 32.010000000000005 C 5.990587981086939 31.17339469322673 6.513843254439186 30.426122370202734 7.299999999999999 30.14 L 23.169999999999998 24.37 C 23.726775606397666 24.165572150765843 24.16557215076584 23.72677560639767 24.369999999999997 23.17 L 30.12 7.3 C 30.406122370202738 6.513843254439189 31.15339469322673 5.990587981086945 31.990000000000002 5.990587981086945 C 32.82660530677327 5.990587981086945 33.573877629797266 6.513843254439189 33.86 7.300000000000001 L 39.629999999999995 23.169999999999998 C 39.83442784923415 23.726775606397666 40.27322439360233 24.16557215076584 40.83 24.369999999999997 L 56.69 30.129999999999995 C 57.47615674556081 30.41612237020273 57.999412018913056 31.163394693226724 57.999412018913056 31.999999999999996 C 57.999412018913056 32.836605306773265 57.476156745560814 33.583877629797264 56.69 33.87 L 40.82 39.64 C 40.26322439360233 39.84442784923416 39.824427849234155 40.28322439360233 39.62 40.84 z" stroke-linecap="round" />
</g>
</svg>